<?xml version="1.0" encoding="UTF-8" standalone="no"?>
<!-- Created with Inkscape (http://www.inkscape.org/) -->

<svg
   xmlns:dc="http://purl.org/dc/elements/1.1/"
   xmlns:cc="http://creativecommons.org/ns#"
   xmlns:rdf="http://www.w3.org/1999/02/22-rdf-syntax-ns#"
   xmlns:svg="http://www.w3.org/2000/svg"
   xmlns="http://www.w3.org/2000/svg"
   xmlns:xlink="http://www.w3.org/1999/xlink"
   xmlns:sodipodi="http://sodipodi.sourceforge.net/DTD/sodipodi-0.dtd"
   xmlns:inkscape="http://www.inkscape.org/namespaces/inkscape"
   width="477.14285"
   height="1186.1031"
   id="svg3117"
   version="1.1"
   inkscape:version="0.48.2 r9819"
   sodipodi:docname="Yeni belge 7">
  <defs
     id="defs3119">
    <linearGradient
       id="linearGradient3895">
      <stop
         id="stop3899"
         offset="0"
         style="stop-color:#aeffae;stop-opacity:1;" />
      <stop
         id="stop3897"
         offset="1"
         style="stop-color:#008000;stop-opacity:1;" />
    </linearGradient>
    <radialGradient
       inkscape:collect="always"
       xlink:href="#linearGradient3895"
       id="radialGradient3901"
       cx="45.714283"
       cy="432.36218"
       fx="45.714283"
       fy="432.36218"
       r="125.71429"
       gradientUnits="userSpaceOnUse" />
    <radialGradient
       inkscape:collect="always"
       xlink:href="#linearGradient3895"
       id="radialGradient3911"
       gradientUnits="userSpaceOnUse"
       cx="45.714283"
       cy="432.36218"
       fx="45.714283"
       fy="432.36218"
       r="125.71429" />
    <radialGradient
       inkscape:collect="always"
       xlink:href="#linearGradient3895"
       id="radialGradient3915"
       gradientUnits="userSpaceOnUse"
       cx="45.714283"
       cy="432.36218"
       fx="45.714283"
       fy="432.36218"
       r="125.71429" />
    <radialGradient
       inkscape:collect="always"
       xlink:href="#linearGradient3895"
       id="radialGradient3919"
       gradientUnits="userSpaceOnUse"
       cx="45.714283"
       cy="432.36218"
       fx="45.714283"
       fy="432.36218"
       r="125.71429" />
    <radialGradient
       inkscape:collect="always"
       xlink:href="#linearGradient3895"
       id="radialGradient3923"
       gradientUnits="userSpaceOnUse"
       cx="45.714283"
       cy="432.36218"
       fx="45.714283"
       fy="432.36218"
       r="125.71429" />
    <radialGradient
       inkscape:collect="always"
       xlink:href="#linearGradient3895"
       id="radialGradient3927"
       gradientUnits="userSpaceOnUse"
       cx="45.714283"
       cy="432.36218"
       fx="45.714283"
       fy="432.36218"
       r="125.71429" />
    <radialGradient
       inkscape:collect="always"
       xlink:href="#linearGradient3895"
       id="radialGradient3931"
       gradientUnits="userSpaceOnUse"
       cx="45.714283"
       cy="432.36218"
       fx="45.714283"
       fy="432.36218"
       r="125.71429" />
    <radialGradient
       inkscape:collect="always"
       xlink:href="#linearGradient3895"
       id="radialGradient3935"
       gradientUnits="userSpaceOnUse"
       cx="45.714283"
       cy="432.36218"
       fx="45.714283"
       fy="432.36218"
       r="125.71429" />
    <radialGradient
       inkscape:collect="always"
       xlink:href="#linearGradient3895"
       id="radialGradient3939"
       gradientUnits="userSpaceOnUse"
       cx="45.714283"
       cy="432.36218"
       fx="45.714283"
       fy="432.36218"
       r="125.71429" />
    <radialGradient
       inkscape:collect="always"
       xlink:href="#linearGradient3895"
       id="radialGradient3943"
       gradientUnits="userSpaceOnUse"
       cx="45.714283"
       cy="432.36218"
       fx="45.714283"
       fy="432.36218"
       r="125.71429" />
    <radialGradient
       inkscape:collect="always"
       xlink:href="#linearGradient3895"
       id="radialGradient3947"
       gradientUnits="userSpaceOnUse"
       cx="45.714283"
       cy="432.36218"
       fx="45.714283"
       fy="432.36218"
       r="125.71429" />
    <radialGradient
       inkscape:collect="always"
       xlink:href="#linearGradient3895"
       id="radialGradient3969"
       gradientUnits="userSpaceOnUse"
       cx="45.714283"
       cy="432.36218"
       fx="45.714283"
       fy="432.36218"
       r="125.71429" />
    <radialGradient
       inkscape:collect="always"
       xlink:href="#linearGradient3895"
       id="radialGradient3975"
       gradientUnits="userSpaceOnUse"
       cx="45.714283"
       cy="432.36218"
       fx="45.714283"
       fy="432.36218"
       r="125.71429" />
  </defs>
  <sodipodi:namedview
     id="base"
     pagecolor="#ffffff"
     bordercolor="#666666"
     borderopacity="1.0"
     inkscape:pageopacity="0.0"
     inkscape:pageshadow="2"
     inkscape:zoom="0.44614458"
     inkscape:cx="238.57143"
     inkscape:cy="592.8572"
     inkscape:document-units="px"
     inkscape:current-layer="layer1"
     showgrid="false"
     fit-margin-top="0"
     fit-margin-left="0"
     fit-margin-right="0"
     fit-margin-bottom="0"
     inkscape:window-width="1280"
     inkscape:window-height="748"
     inkscape:window-x="-8"
     inkscape:window-y="-8"
     inkscape:window-maximized="1" />
  <metadata
     id="metadata3122">
    <rdf:RDF>
      <cc:Work
         rdf:about="">
        <dc:format>image/svg+xml</dc:format>
        <dc:type
           rdf:resource="http://purl.org/dc/dcmitype/StillImage" />
        <dc:title></dc:title>
      </cc:Work>
    </rdf:RDF>
  </metadata>
  <g
     inkscape:label="Layer 1"
     inkscape:groupmode="layer"
     id="layer1"
     transform="translate(-2.8571414,136.59813)">
    <path
       style="fill:none;stroke:#000000;stroke-width:10;stroke-linecap:butt;stroke-linejoin:miter;stroke-miterlimit:4;stroke-opacity:1;stroke-dasharray:none"
       d="m 68.571429,-79.066389 c 25.64934,60.650318 53.108881,109.4085 60.000001,171.428572"
       id="path3953"
       inkscape:connector-curvature="0" />
    <path
       style="fill:none;stroke:#000000;stroke-width:10;stroke-linecap:butt;stroke-linejoin:miter;stroke-miterlimit:4;stroke-opacity:1;stroke-dasharray:none"
       d="M 245.71429,-107.63782 C 215.18903,-48.144622 208.57143,26.57632 208.57143,83.790754"
       id="path3955"
       inkscape:connector-curvature="0" />
    <path
       sodipodi:type="arc"
       style="fill:url(#radialGradient3901);fill-opacity:1;stroke:none"
       id="path3125"
       sodipodi:cx="74.285713"
       sodipodi:cy="452.36218"
       sodipodi:rx="125.71429"
       sodipodi:ry="125.71429"
       d="m 200,452.36218 c 0,69.43009 -56.2842,125.71429 -125.714287,125.71429 -69.4300832,0 -125.714287,-56.2842 -125.714287,-125.71429 0,-69.43008 56.2842038,-125.71428 125.714287,-125.71428 C 143.7158,326.6479 200,382.9321 200,452.36218 z"
       transform="translate(280,471.42857)" />
    <path
       transform="translate(205.71429,428.57143)"
       d="m 200,452.36218 c 0,69.43009 -56.2842,125.71429 -125.714287,125.71429 -69.4300832,0 -125.714287,-56.2842 -125.714287,-125.71429 0,-69.43008 56.2842038,-125.71428 125.714287,-125.71428 C 143.7158,326.6479 200,382.9321 200,452.36218 z"
       sodipodi:ry="125.71429"
       sodipodi:rx="125.71429"
       sodipodi:cy="452.36218"
       sodipodi:cx="74.285713"
       id="path3909"
       style="fill:url(#radialGradient3911);fill-opacity:1;stroke:none"
       sodipodi:type="arc" />
    <path
       sodipodi:type="arc"
       style="fill:url(#radialGradient3915);fill-opacity:1;stroke:none"
       id="path3913"
       sodipodi:cx="74.285713"
       sodipodi:cy="452.36218"
       sodipodi:rx="125.71429"
       sodipodi:ry="125.71429"
       d="m 200,452.36218 c 0,69.43009 -56.2842,125.71429 -125.714287,125.71429 -69.4300832,0 -125.714287,-56.2842 -125.714287,-125.71429 0,-69.43008 56.2842038,-125.71428 125.714287,-125.71428 C 143.7158,326.6479 200,382.9321 200,452.36218 z"
       transform="translate(148.57143,357.14286)" />
    <path
       transform="translate(82.857144,294.28572)"
       d="m 200,452.36218 c 0,69.43009 -56.2842,125.71429 -125.714287,125.71429 -69.4300832,0 -125.714287,-56.2842 -125.714287,-125.71429 0,-69.43008 56.2842038,-125.71428 125.714287,-125.71428 C 143.7158,326.6479 200,382.9321 200,452.36218 z"
       sodipodi:ry="125.71429"
       sodipodi:rx="125.71429"
       sodipodi:cy="452.36218"
       sodipodi:cx="74.285713"
       id="path3917"
       style="fill:url(#radialGradient3919);fill-opacity:1;stroke:none"
       sodipodi:type="arc" />
    <path
       sodipodi:type="arc"
       style="fill:url(#radialGradient3923);fill-opacity:1;stroke:none"
       id="path3921"
       sodipodi:cx="74.285713"
       sodipodi:cy="452.36218"
       sodipodi:rx="125.71429"
       sodipodi:ry="125.71429"
       d="m 200,452.36218 c 0,69.43009 -56.2842,125.71429 -125.714287,125.71429 -69.4300832,0 -125.714287,-56.2842 -125.714287,-125.71429 0,-69.43008 56.2842038,-125.71428 125.714287,-125.71428 C 143.7158,326.6479 200,382.9321 200,452.36218 z"
       transform="translate(54.285715,197.14286)" />
    <path
       transform="translate(88.571429,111.42857)"
       d="m 200,452.36218 c 0,69.43009 -56.2842,125.71429 -125.714287,125.71429 -69.4300832,0 -125.714287,-56.2842 -125.714287,-125.71429 0,-69.43008 56.2842038,-125.71428 125.714287,-125.71428 C 143.7158,326.6479 200,382.9321 200,452.36218 z"
       sodipodi:ry="125.71429"
       sodipodi:rx="125.71429"
       sodipodi:cy="452.36218"
       sodipodi:cx="74.285713"
       id="path3925"
       style="fill:url(#radialGradient3927);fill-opacity:1;stroke:none"
       sodipodi:type="arc" />
    <path
       sodipodi:type="arc"
       style="fill:url(#radialGradient3931);fill-opacity:1;stroke:none"
       id="path3929"
       sodipodi:cx="74.285713"
       sodipodi:cy="452.36218"
       sodipodi:rx="125.71429"
       sodipodi:ry="125.71429"
       d="m 200,452.36218 c 0,69.43009 -56.2842,125.71429 -125.714287,125.71429 -69.4300832,0 -125.714287,-56.2842 -125.714287,-125.71429 0,-69.43008 56.2842038,-125.71428 125.714287,-125.71428 C 143.7158,326.6479 200,382.9321 200,452.36218 z"
       transform="translate(145.71429,37.142856)" />
    <path
       transform="translate(202.85715,-37.142858)"
       d="m 200,452.36218 c 0,69.43009 -56.2842,125.71429 -125.714287,125.71429 -69.4300832,0 -125.714287,-56.2842 -125.714287,-125.71429 0,-69.43008 56.2842038,-125.71428 125.714287,-125.71428 C 143.7158,326.6479 200,382.9321 200,452.36218 z"
       sodipodi:ry="125.71429"
       sodipodi:rx="125.71429"
       sodipodi:cy="452.36218"
       sodipodi:cx="74.285713"
       id="path3933"
       style="fill:url(#radialGradient3935);fill-opacity:1;stroke:none"
       sodipodi:type="arc" />
    <path
       sodipodi:type="arc"
       style="fill:url(#radialGradient3939);fill-opacity:1;stroke:none"
       id="path3937"
       sodipodi:cx="74.285713"
       sodipodi:cy="452.36218"
       sodipodi:rx="125.71429"
       sodipodi:ry="125.71429"
       d="m 200,452.36218 c 0,69.43009 -56.2842,125.71429 -125.714287,125.71429 -69.4300832,0 -125.714287,-56.2842 -125.714287,-125.71429 0,-69.43008 56.2842038,-125.71428 125.714287,-125.71428 C 143.7158,326.6479 200,382.9321 200,452.36218 z"
       transform="translate(205.71429,-125.71429)" />
    <path
       transform="translate(154.28572,-220)"
       d="m 200,452.36218 c 0,69.43009 -56.2842,125.71429 -125.714287,125.71429 -69.4300832,0 -125.714287,-56.2842 -125.714287,-125.71429 0,-69.43008 56.2842038,-125.71428 125.714287,-125.71428 C 143.7158,326.6479 200,382.9321 200,452.36218 z"
       sodipodi:ry="125.71429"
       sodipodi:rx="125.71429"
       sodipodi:cy="452.36218"
       sodipodi:cx="74.285713"
       id="path3941"
       style="fill:url(#radialGradient3943);fill-opacity:1;stroke:none"
       sodipodi:type="arc" />
    <path
       sodipodi:type="arc"
       style="fill:url(#radialGradient3947);fill-opacity:1;stroke:none"
       id="path3945"
       sodipodi:cx="74.285713"
       sodipodi:cy="452.36218"
       sodipodi:rx="125.71429"
       sodipodi:ry="125.71429"
       d="m 200,452.36218 c 0,69.43009 -56.2842,125.71429 -125.714287,125.71429 -69.4300832,0 -125.714287,-56.2842 -125.714287,-125.71429 0,-69.43008 56.2842038,-125.71428 125.714287,-125.71428 C 143.7158,326.6479 200,382.9321 200,452.36218 z"
       transform="translate(111.42858,-294.28571)" />
    <path
       style="fill:#eef4d7;stroke:#000000;stroke-width:3.27579403;stroke-linecap:butt;stroke-linejoin:miter;stroke-miterlimit:4;stroke-opacity:1;stroke-dasharray:none"
       d="m 101.99504,173.45843 c 41.16204,106.00253 122.68459,58.48322 150.29563,-1.95835 -49.02805,18.85125 -98.32666,33.10278 -150.29563,1.95835 z"
       id="path3957"
       inkscape:connector-curvature="0"
       sodipodi:nodetypes="ccc" />
    <path
       sodipodi:type="arc"
       style="fill:#eef4d7;stroke:#000000;stroke-width:5;stroke-miterlimit:4;stroke-dasharray:none"
       id="path3959"
       sodipodi:cx="-258.8847"
       sodipodi:cy="219.67247"
       sodipodi:rx="39.224953"
       sodipodi:ry="39.224953"
       d="m -219.65975,219.67247 c 0,21.66334 -17.56161,39.22495 -39.22495,39.22495 -21.66335,0 -39.22496,-17.56161 -39.22496,-39.22495 0,-21.66334 17.56161,-39.22495 39.22496,-39.22495 21.66334,0 39.22495,17.56161 39.22495,39.22495 z"
       transform="matrix(0.62396647,0,0,0.62396647,297.14163,-18.259951)" />
    <path
       transform="matrix(0.62396647,0,0,0.62396647,375.59154,-20.501377)"
       d="m -219.65975,219.67247 c 0,21.66334 -17.56161,39.22495 -39.22495,39.22495 -21.66335,0 -39.22496,-17.56161 -39.22496,-39.22495 0,-21.66334 17.56161,-39.22495 39.22496,-39.22495 21.66334,0 39.22495,17.56161 39.22495,39.22495 z"
       sodipodi:ry="39.224953"
       sodipodi:rx="39.224953"
       sodipodi:cy="219.67247"
       sodipodi:cx="-258.8847"
       id="path3961"
       style="fill:#eef4d7;stroke:#000000;stroke-width:5;stroke-miterlimit:4;stroke-dasharray:none"
       sodipodi:type="arc" />
    <path
       sodipodi:type="arc"
       style="fill:#000000;stroke:none"
       id="path3963"
       sodipodi:cx="213.49661"
       sodipodi:cy="130.85216"
       sodipodi:rx="8.8587809"
       sodipodi:ry="8.8587809"
       d="m 222.35539,130.85216 c 0,4.89257 -3.96621,8.85878 -8.85878,8.85878 -4.89257,0 -8.85878,-3.96621 -8.85878,-8.85878 0,-4.89257 3.96621,-8.85878 8.85878,-8.85878 4.89257,0 8.85878,3.96621 8.85878,8.85878 z"
       transform="matrix(1.3922009,0,0,1.3922009,-80.259145,-54.794758)" />
    <path
       transform="matrix(1.3922009,0,0,1.3922009,-163.64527,-52.01522)"
       d="m 222.35539,130.85216 c 0,4.89257 -3.96621,8.85878 -8.85878,8.85878 -4.89257,0 -8.85878,-3.96621 -8.85878,-8.85878 0,-4.89257 3.96621,-8.85878 8.85878,-8.85878 4.89257,0 8.85878,3.96621 8.85878,8.85878 z"
       sodipodi:ry="8.8587809"
       sodipodi:rx="8.8587809"
       sodipodi:cy="130.85216"
       sodipodi:cx="213.49661"
       id="path3965"
       style="fill:#000000;stroke:none"
       sodipodi:type="arc" />
    <path
       transform="matrix(0.20658619,0,0,0.20658619,53.157503,-181.66481)"
       d="m 200,452.36218 c 0,69.43009 -56.2842,125.71429 -125.714287,125.71429 -69.4300832,0 -125.714287,-56.2842 -125.714287,-125.71429 0,-69.43008 56.2842038,-125.71428 125.714287,-125.71428 C 143.7158,326.6479 200,382.9321 200,452.36218 z"
       sodipodi:ry="125.71429"
       sodipodi:rx="125.71429"
       sodipodi:cy="452.36218"
       sodipodi:cx="74.285713"
       id="path3967"
       style="fill:url(#radialGradient3969);fill-opacity:1;stroke:none"
       sodipodi:type="arc" />
    <path
       sodipodi:type="arc"
       style="fill:url(#radialGradient3975);fill-opacity:1;stroke:none"
       id="path3973"
       sodipodi:cx="74.285713"
       sodipodi:cy="452.36218"
       sodipodi:rx="125.71429"
       sodipodi:ry="125.71429"
       d="m 200,452.36218 c 0,69.43009 -56.2842,125.71429 -125.714287,125.71429 -69.4300832,0 -125.714287,-56.2842 -125.714287,-125.71429 0,-69.43008 56.2842038,-125.71428 125.714287,-125.71428 C 143.7158,326.6479 200,382.9321 200,452.36218 z"
       transform="matrix(0.20658619,0,0,0.20658619,227.98872,-204.07907)" />
  </g>
</svg>
